<svg width="24" height="24" viewBox="0 0 24 24" fill="none" xmlns="http://www.w3.org/2000/svg">
<path fill-rule="evenodd" clip-rule="evenodd" d="M4.04373 13.446C4.04373 12.5988 4.38604 12.5142 4.83582 12.0995L12.0393 5.31691C12.7848 5.98247 13.4045 6.57769 14.1616 7.24555L18.3384 11.2129C18.8632 11.6959 19.9735 12.6923 19.9735 13.446V20.4582C19.9735 21.5072 19.2806 21.6616 18.2235 21.6616L15.0088 21.6004C14.9895 20.5856 14.9782 18.6418 14.9795 17.2445C14.9806 16.1203 14.7027 15.9067 13.8782 15.908C12.616 15.9101 11.4908 15.8726 10.0865 15.8726C9.37572 15.84 9.00891 16.1171 9.00891 17.0336L9.00835 21.6616C6.28014 21.6616 4.04373 22.1467 4.04373 20.2951V13.446ZM17.7047 1.3981H19.2192L19.1751 5.97465L17.6727 4.70222L17.7047 1.3981ZM21.9432 12.2267C21.3745 12.3535 21.1355 11.9126 19.4921 10.3802C17.651 8.56075 14.5186 5.49319 12.6223 3.86659C12.213 3.51545 11.7813 3.51259 11.5008 3.75946C8.85894 6.23932 5.26744 9.7519 2.82365 11.9896C2.22748 12.5355 0.945297 12.0105 1.79813 10.9646C2.77329 9.76874 10.0336 2.89812 11.3045 1.79976C11.6941 1.46306 12.0756 1.38275 12.4638 1.58967L21.6508 10.336C22.0546 10.7733 22.4291 10.9304 22.4647 11.4271C22.4925 11.8143 22.3803 12.1293 21.9432 12.2267ZM10.397 22.0063L10.4759 17.324L13.5412 17.3573C13.5635 19.4084 13.6181 20.929 13.5988 21.7801C13.5654 23.2541 14.0843 23.0097 17.9001 23.0071C20.5698 23.0441 21.4134 22.2231 21.4504 20.4334C21.4792 19.0393 21.4167 16.6854 21.4167 13.6596C22.8788 13.7007 24.1258 12.8952 23.9898 11.3269C23.8873 10.1439 22.4492 9.15792 21.8077 8.54877C20.8743 7.66274 20.6291 7.22836 20.6251 6.6978C20.6113 4.87508 20.6553 2.72489 20.6565 0.863802C20.6568 0.430196 20.3849 0.135136 19.8446 0.119332C19.0124 0.0949666 17.763 0.113038 16.9579 0.134916C16.4521 0.148638 16.1924 0.410958 16.187 0.936238C16.1782 1.77951 16.2138 2.39577 16.2001 3.10178C14.1048 1.33758 12.751 -0.939284 10.7443 0.407269L0.507716 10.2083C-0.688904 11.6145 0.322284 13.8465 2.57016 13.6394C2.67644 15.0854 2.56928 17.9649 2.57371 20.0393C2.57566 20.9348 2.80468 21.6684 3.1118 22.0646C3.65216 22.7419 4.29284 22.9621 5.13656 22.9901C6.18934 23.025 9.08377 23.0819 9.77761 22.9623C10.0697 22.9119 10.3691 22.6159 10.397 22.0063Z" fill="#999999"/>
</svg>
